<svg xmlns="http://www.w3.org/2000/svg" xmlns:xlink="http://www.w3.org/1999/xlink" width="192" zoomAndPan="magnify" viewBox="0 0 144 143.999998" height="192" preserveAspectRatio="xMidYMid meet" version="1.0"><defs><g/></defs><g fill="#34216b" fill-opacity="1"><g transform="translate(25.35258, 78.979632)"><g><path d="M 1.71875 0 C 1.632812 0 1.566406 -0.0195312 1.515625 -0.0625 C 1.472656 -0.113281 1.453125 -0.179688 1.453125 -0.265625 L 1.453125 -12.15625 C 1.453125 -12.238281 1.472656 -12.300781 1.515625 -12.34375 C 1.566406 -12.394531 1.632812 -12.421875 1.71875 -12.421875 L 2.859375 -12.421875 C 3.003906 -12.421875 3.109375 -12.363281 3.171875 -12.25 L 8.609375 -3.46875 C 8.628906 -3.425781 8.648438 -3.40625 8.671875 -3.40625 C 8.703125 -3.414062 8.71875 -3.445312 8.71875 -3.5 L 8.71875 -12.15625 C 8.71875 -12.238281 8.738281 -12.300781 8.78125 -12.34375 C 8.832031 -12.394531 8.898438 -12.421875 8.984375 -12.421875 L 10.15625 -12.421875 C 10.238281 -12.421875 10.300781 -12.394531 10.34375 -12.34375 C 10.394531 -12.300781 10.421875 -12.238281 10.421875 -12.15625 L 10.421875 -0.265625 C 10.421875 -0.179688 10.394531 -0.113281 10.34375 -0.0625 C 10.300781 -0.0195312 10.238281 0 10.15625 0 L 9 0 C 8.851562 0 8.75 -0.0546875 8.6875 -0.171875 L 3.25 -9.015625 C 3.226562 -9.046875 3.203125 -9.054688 3.171875 -9.046875 C 3.148438 -9.046875 3.140625 -9.023438 3.140625 -8.984375 L 3.15625 -0.265625 C 3.15625 -0.179688 3.128906 -0.113281 3.078125 -0.0625 C 3.035156 -0.0195312 2.972656 0 2.890625 0 Z M 1.71875 0 "/></g></g></g><g fill="#34216b" fill-opacity="1"><g transform="translate(37.204708, 78.979632)"><g><path d="M 6.625 -8.765625 C 6.625 -8.847656 6.644531 -8.910156 6.6875 -8.953125 C 6.738281 -9.003906 6.804688 -9.03125 6.890625 -9.03125 L 8.046875 -9.03125 C 8.128906 -9.03125 8.191406 -9.003906 8.234375 -8.953125 C 8.285156 -8.910156 8.3125 -8.847656 8.3125 -8.765625 L 8.3125 -0.265625 C 8.3125 -0.179688 8.285156 -0.113281 8.234375 -0.0625 C 8.191406 -0.0195312 8.128906 0 8.046875 0 L 6.890625 0 C 6.804688 0 6.738281 -0.0195312 6.6875 -0.0625 C 6.644531 -0.113281 6.625 -0.179688 6.625 -0.265625 L 6.625 -0.796875 C 6.625 -0.835938 6.609375 -0.859375 6.578125 -0.859375 C 6.554688 -0.867188 6.535156 -0.859375 6.515625 -0.828125 C 6.035156 -0.191406 5.3125 0.125 4.34375 0.125 C 3.769531 0.125 3.234375 0.015625 2.734375 -0.203125 C 2.242188 -0.429688 1.851562 -0.765625 1.5625 -1.203125 C 1.269531 -1.640625 1.125 -2.171875 1.125 -2.796875 L 1.125 -8.765625 C 1.125 -8.847656 1.144531 -8.910156 1.1875 -8.953125 C 1.238281 -9.003906 1.304688 -9.03125 1.390625 -9.03125 L 2.53125 -9.03125 C 2.613281 -9.03125 2.675781 -9.003906 2.71875 -8.953125 C 2.769531 -8.910156 2.796875 -8.847656 2.796875 -8.765625 L 2.796875 -3.34375 C 2.796875 -2.71875 2.957031 -2.226562 3.28125 -1.875 C 3.613281 -1.519531 4.078125 -1.34375 4.671875 -1.34375 C 5.265625 -1.34375 5.738281 -1.523438 6.09375 -1.890625 C 6.445312 -2.253906 6.625 -2.738281 6.625 -3.34375 Z M 6.625 -8.765625 "/></g></g></g><g fill="#34216b" fill-opacity="1"><g transform="translate(46.750284, 78.979632)"><g><path d="M 5.703125 -7.90625 C 5.703125 -7.820312 5.675781 -7.753906 5.625 -7.703125 C 5.582031 -7.648438 5.519531 -7.625 5.4375 -7.625 L 3.625 -7.625 C 3.5625 -7.625 3.53125 -7.597656 3.53125 -7.546875 L 3.53125 -2.90625 C 3.53125 -2.394531 3.640625 -2.035156 3.859375 -1.828125 C 4.078125 -1.617188 4.429688 -1.515625 4.921875 -1.515625 L 5.34375 -1.515625 C 5.425781 -1.515625 5.488281 -1.488281 5.53125 -1.4375 C 5.582031 -1.382812 5.609375 -1.320312 5.609375 -1.25 L 5.609375 -0.3125 C 5.609375 -0.15625 5.519531 -0.0625 5.34375 -0.03125 L 4.609375 -0.015625 C 3.703125 -0.015625 3.023438 -0.171875 2.578125 -0.484375 C 2.128906 -0.804688 1.90625 -1.410156 1.90625 -2.296875 L 1.90625 -7.546875 C 1.90625 -7.597656 1.875 -7.625 1.8125 -7.625 L 0.828125 -7.625 C 0.742188 -7.625 0.675781 -7.648438 0.625 -7.703125 C 0.582031 -7.753906 0.5625 -7.820312 0.5625 -7.90625 L 0.5625 -8.765625 C 0.5625 -8.847656 0.582031 -8.910156 0.625 -8.953125 C 0.675781 -9.003906 0.742188 -9.03125 0.828125 -9.03125 L 1.8125 -9.03125 C 1.875 -9.03125 1.90625 -9.0625 1.90625 -9.125 L 1.90625 -11.109375 C 1.90625 -11.191406 1.925781 -11.253906 1.96875 -11.296875 C 2.019531 -11.347656 2.085938 -11.375 2.171875 -11.375 L 3.265625 -11.375 C 3.347656 -11.375 3.410156 -11.347656 3.453125 -11.296875 C 3.503906 -11.253906 3.53125 -11.191406 3.53125 -11.109375 L 3.53125 -9.125 C 3.53125 -9.0625 3.5625 -9.03125 3.625 -9.03125 L 5.4375 -9.03125 C 5.519531 -9.03125 5.582031 -9.003906 5.625 -8.953125 C 5.675781 -8.910156 5.703125 -8.847656 5.703125 -8.765625 Z M 5.703125 -7.90625 "/></g></g></g><g fill="#34216b" fill-opacity="1"><g transform="translate(53.297343, 78.979632)"><g><path d="M 5.046875 -1.3125 C 6.003906 -1.320312 6.6875 -1.695312 7.09375 -2.4375 C 7.15625 -2.539062 7.222656 -2.59375 7.296875 -2.59375 C 7.359375 -2.59375 7.410156 -2.570312 7.453125 -2.53125 L 8.1875 -2.09375 C 8.28125 -2.03125 8.328125 -1.953125 8.328125 -1.859375 L 8.296875 -1.71875 C 7.972656 -1.144531 7.515625 -0.691406 6.921875 -0.359375 C 6.335938 -0.0234375 5.65625 0.140625 4.875 0.140625 C 4.039062 0.140625 3.332031 -0.0390625 2.75 -0.40625 C 2.164062 -0.78125 1.726562 -1.320312 1.4375 -2.03125 C 1.144531 -2.75 1 -3.59375 1 -4.5625 C 1 -5.425781 1.0625 -6.082031 1.1875 -6.53125 C 1.40625 -7.34375 1.832031 -7.984375 2.46875 -8.453125 C 3.101562 -8.929688 3.878906 -9.171875 4.796875 -9.171875 C 5.921875 -9.171875 6.773438 -8.878906 7.359375 -8.296875 C 7.953125 -7.710938 8.335938 -6.863281 8.515625 -5.75 C 8.578125 -5.3125 8.617188 -4.78125 8.640625 -4.15625 C 8.640625 -3.976562 8.550781 -3.890625 8.375 -3.890625 L 2.765625 -3.890625 C 2.710938 -3.890625 2.6875 -3.859375 2.6875 -3.796875 C 2.707031 -3.347656 2.742188 -3.03125 2.796875 -2.84375 C 2.929688 -2.363281 3.191406 -1.988281 3.578125 -1.71875 C 3.972656 -1.445312 4.460938 -1.3125 5.046875 -1.3125 Z M 4.796875 -7.703125 C 4.273438 -7.703125 3.847656 -7.578125 3.515625 -7.328125 C 3.191406 -7.078125 2.972656 -6.734375 2.859375 -6.296875 C 2.773438 -6.035156 2.722656 -5.707031 2.703125 -5.3125 C 2.703125 -5.25 2.726562 -5.21875 2.78125 -5.21875 L 6.8125 -5.21875 C 6.875 -5.21875 6.90625 -5.25 6.90625 -5.3125 C 6.882812 -5.695312 6.847656 -5.984375 6.796875 -6.171875 C 6.679688 -6.640625 6.445312 -7.007812 6.09375 -7.28125 C 5.75 -7.5625 5.316406 -7.703125 4.796875 -7.703125 Z M 4.796875 -7.703125 "/></g></g></g><g fill="#34216b" fill-opacity="1"><g transform="translate(62.842919, 78.979632)"><g><path d="M 4.859375 0.140625 C 3.960938 0.140625 3.191406 -0.0820312 2.546875 -0.53125 C 1.910156 -0.988281 1.476562 -1.609375 1.25 -2.390625 C 1.0625 -2.941406 0.96875 -3.660156 0.96875 -4.546875 C 0.96875 -5.359375 1.0625 -6.070312 1.25 -6.6875 C 1.476562 -7.445312 1.914062 -8.050781 2.5625 -8.5 C 3.207031 -8.945312 3.972656 -9.171875 4.859375 -9.171875 C 5.742188 -9.171875 6.519531 -8.945312 7.1875 -8.5 C 7.851562 -8.050781 8.285156 -7.484375 8.484375 -6.796875 C 8.546875 -6.640625 8.585938 -6.472656 8.609375 -6.296875 L 8.609375 -6.265625 C 8.609375 -6.117188 8.53125 -6.035156 8.375 -6.015625 L 7.21875 -5.859375 L 7.171875 -5.859375 C 7.035156 -5.859375 6.953125 -5.921875 6.921875 -6.046875 L 6.875 -6.28125 C 6.78125 -6.6875 6.546875 -7.023438 6.171875 -7.296875 C 5.804688 -7.566406 5.363281 -7.703125 4.84375 -7.703125 C 4.332031 -7.703125 3.898438 -7.566406 3.546875 -7.296875 C 3.191406 -7.023438 2.960938 -6.664062 2.859375 -6.21875 C 2.753906 -5.789062 2.703125 -5.226562 2.703125 -4.53125 C 2.703125 -3.84375 2.753906 -3.285156 2.859375 -2.859375 C 2.972656 -2.378906 3.203125 -2.003906 3.546875 -1.734375 C 3.898438 -1.460938 4.332031 -1.328125 4.84375 -1.328125 C 5.351562 -1.328125 5.789062 -1.457031 6.15625 -1.71875 C 6.519531 -1.988281 6.757812 -2.332031 6.875 -2.75 L 6.890625 -2.828125 L 6.890625 -2.84375 C 6.898438 -2.894531 6.929688 -2.945312 6.984375 -3 C 7.046875 -3.0625 7.113281 -3.085938 7.1875 -3.078125 L 8.34375 -2.875 C 8.507812 -2.84375 8.585938 -2.75 8.578125 -2.59375 C 8.566406 -2.539062 8.535156 -2.425781 8.484375 -2.25 C 8.285156 -1.53125 7.851562 -0.953125 7.1875 -0.515625 C 6.519531 -0.078125 5.742188 0.140625 4.859375 0.140625 Z M 4.859375 0.140625 "/></g></g></g><g fill="#34216b" fill-opacity="1"><g transform="translate(72.17558, 78.979632)"><g><path d="M 5.265625 -9.15625 C 6.242188 -9.15625 7.015625 -8.875 7.578125 -8.3125 C 8.148438 -7.75 8.4375 -6.988281 8.4375 -6.03125 L 8.4375 -0.265625 C 8.4375 -0.179688 8.410156 -0.113281 8.359375 -0.0625 C 8.316406 -0.0195312 8.253906 0 8.171875 0 L 7 0 C 6.914062 0 6.847656 -0.0195312 6.796875 -0.0625 C 6.753906 -0.113281 6.734375 -0.179688 6.734375 -0.265625 L 6.734375 -5.703125 C 6.734375 -6.285156 6.5625 -6.757812 6.21875 -7.125 C 5.875 -7.5 5.414062 -7.6875 4.84375 -7.6875 C 4.332031 -7.6875 3.898438 -7.535156 3.546875 -7.234375 C 3.203125 -6.929688 3.003906 -6.523438 2.953125 -6.015625 L 2.953125 -0.265625 C 2.953125 -0.179688 2.925781 -0.113281 2.875 -0.0625 C 2.820312 -0.0195312 2.757812 0 2.6875 0 L 1.515625 0 C 1.429688 0 1.363281 -0.0195312 1.3125 -0.0625 C 1.269531 -0.113281 1.25 -0.179688 1.25 -0.265625 L 1.25 -12.15625 C 1.25 -12.238281 1.269531 -12.300781 1.3125 -12.34375 C 1.363281 -12.394531 1.429688 -12.421875 1.515625 -12.421875 L 2.6875 -12.421875 C 2.757812 -12.421875 2.820312 -12.394531 2.875 -12.34375 C 2.925781 -12.300781 2.953125 -12.238281 2.953125 -12.15625 L 2.953125 -8.265625 C 2.953125 -8.234375 2.960938 -8.210938 2.984375 -8.203125 C 3.003906 -8.191406 3.019531 -8.195312 3.03125 -8.21875 C 3.53125 -8.84375 4.273438 -9.15625 5.265625 -9.15625 Z M 5.265625 -9.15625 "/></g></g></g><g fill="#34216b" fill-opacity="1"><g transform="translate(81.792125, 78.979632)"><g/></g></g><g fill="#34216b" fill-opacity="1"><g transform="translate(85.342212, 78.979632)"><g><path d="M 4.46875 0 C 4.300781 0 4.191406 -0.0820312 4.140625 -0.25 L 0.53125 -12.09375 C 0.519531 -12.113281 0.515625 -12.144531 0.515625 -12.1875 C 0.515625 -12.34375 0.601562 -12.421875 0.78125 -12.421875 L 2.84375 -12.421875 C 3.007812 -12.421875 3.117188 -12.335938 3.171875 -12.171875 L 5.5 -3.625 C 5.507812 -3.570312 5.53125 -3.546875 5.5625 -3.546875 C 5.601562 -3.546875 5.628906 -3.570312 5.640625 -3.625 L 7.9375 -12.15625 C 7.988281 -12.332031 8.097656 -12.421875 8.265625 -12.421875 L 10.28125 -12.421875 C 10.382812 -12.421875 10.457031 -12.390625 10.5 -12.328125 C 10.550781 -12.265625 10.5625 -12.1875 10.53125 -12.09375 L 6.875 -0.25 C 6.8125 -0.0820312 6.695312 0 6.53125 0 Z M 4.46875 0 "/></g></g></g><g fill="#34216b" fill-opacity="1"><g transform="translate(96.378176, 78.979632)"><g><path d="M 6.21875 -12.4375 C 7 -12.4375 7.679688 -12.273438 8.265625 -11.953125 C 8.859375 -11.640625 9.316406 -11.191406 9.640625 -10.609375 C 9.972656 -10.023438 10.140625 -9.351562 10.140625 -8.59375 C 10.140625 -7.84375 9.96875 -7.179688 9.625 -6.609375 C 9.289062 -6.046875 8.816406 -5.609375 8.203125 -5.296875 C 7.597656 -4.984375 6.898438 -4.828125 6.109375 -4.828125 L 3.609375 -4.828125 C 3.535156 -4.828125 3.5 -4.789062 3.5 -4.71875 L 3.5 -0.296875 C 3.5 -0.0976562 3.394531 0 3.1875 0 L 1.296875 0 C 1.097656 0 1 -0.0976562 1 -0.296875 L 1 -12.140625 C 1 -12.335938 1.097656 -12.4375 1.296875 -12.4375 Z M 5.84375 -6.828125 C 6.382812 -6.828125 6.820312 -6.984375 7.15625 -7.296875 C 7.488281 -7.617188 7.65625 -8.03125 7.65625 -8.53125 C 7.65625 -9.050781 7.488281 -9.472656 7.15625 -9.796875 C 6.820312 -10.117188 6.382812 -10.28125 5.84375 -10.28125 L 3.609375 -10.28125 C 3.535156 -10.28125 3.5 -10.242188 3.5 -10.171875 L 3.5 -6.9375 C 3.5 -6.863281 3.535156 -6.828125 3.609375 -6.828125 Z M 5.84375 -6.828125 "/></g></g></g><g fill="#34216b" fill-opacity="1"><g transform="translate(106.970572, 78.979632)"><g><path d="M 1.390625 0 C 1.179688 0 1.078125 -0.0976562 1.078125 -0.296875 L 1.078125 -12.125 C 1.078125 -12.320312 1.179688 -12.421875 1.390625 -12.421875 L 3.21875 -12.421875 C 3.363281 -12.421875 3.476562 -12.359375 3.5625 -12.234375 L 8 -4.84375 C 8.03125 -4.800781 8.054688 -4.785156 8.078125 -4.796875 C 8.109375 -4.804688 8.125 -4.832031 8.125 -4.875 L 8.125 -12.125 C 8.125 -12.320312 8.226562 -12.421875 8.4375 -12.421875 L 10.296875 -12.421875 C 10.492188 -12.421875 10.59375 -12.320312 10.59375 -12.125 L 10.59375 -0.296875 C 10.59375 -0.0976562 10.492188 0 10.296875 0 L 8.484375 0 C 8.335938 0 8.21875 -0.0703125 8.125 -0.21875 L 3.671875 -7.671875 C 3.648438 -7.710938 3.625 -7.726562 3.59375 -7.71875 C 3.5625 -7.707031 3.546875 -7.675781 3.546875 -7.625 L 3.5625 -0.296875 C 3.5625 -0.0976562 3.460938 0 3.265625 0 Z M 1.390625 0 "/></g></g></g></svg>